# AST/ASF file generated using VICON BodyLanguage
# -----------------------------------------------
:version 1.10
:name VICON
:units
  mass 1.0
  length 0.45
  angle deg
:documentation
   .ast/.asf automatically generated from VICON data using
   VICON BodyBuilder and BodyLanguage model FoxedUp or BRILLIANT.MOD
:root
   order TX TY TZ RX RY RZ
   axis XYZ
   position 0 0 0  
   orientation 0 0 0 
:bonedata
  begin
     id 1 
     name lhipjoint
     direction 0.722297 -0.617336 0.311742 
     length 2.6635 
     axis 0 0 0  XYZ
  end
  begin
     id 2 
     name lfemur
     direction 0.34202 -0.939693 0  
     length 7.39349  
     axis 0 0 20  XYZ
    dof rx ry rz
    limits (-160.0 20.0)
           (-70.0 70.0)
           (-60.0 70.0)
  end
  begin
     id 3 
     name ltibia
     direction 0.34202 -0.939693 0   
     length 7.36294   
     axis 0 0 20   XYZ
    dof rx
    limits (-10.0 170.0)
  end
  begin
     id 4 
     name lfoot
     direction 0.104879 -0.288152 0.951824   
     length 2.16981   
     axis -90 7.62852e-016 20   XYZ
    dof rx rz
    limits (-45.0 90.0)
           (-70.0 20.0)
  end
  begin
     id 5 
     name ltoes
     direction 1.53586e-011 -4.21895e-011 1   
     length 1.08218   
     axis -90 7.62852e-016 20   XYZ
    dof rx
    limits (-90.0 20.0)
  end
  begin
     id 6 
     name rhipjoint
     direction -0.75102 -0.589393 0.297631   
     length 2.78977  
     axis 0 0 0  XYZ 
  end
  begin
     id 7 
     name rfemur
     direction -0.34202 -0.939693 0   
     length 7.46076   
     axis 0 0 -20   XYZ
    dof rx ry rz
    limits (-160.0 20.0)
           (-70.0 70.0)
           (-70.0 60.0)
  end
  begin
     id 8 
     name rtibia
     direction -0.34202 -0.939693 0   
     length 7.31726   
     axis 0 0 -20   XYZ
    dof rx
    limits (-10.0 170.0)
 end
 begin
     id 9 
     name rfoot
     direction -0.107991 -0.296704 0.948844   
     length 2.09388  
     axis -90 -7.62852e-016 -20   XYZ
    dof rx rz
    limits (-45.0 90.0)
           (-20.0 70.0)
  end
  begin
     id 10 
     name rtoes
     direction -1.53559e-011 -4.21911e-011 1   
     length 1.04433   
     axis -90 -7.62852e-016 -20   XYZ
    dof rx
    limits (-90.0 20.0)
  end
  begin
     id 11 
     name lowerback
     direction 0.0165164 0.98272 0.184358   
     length 1.71896   
     axis 0 0 0   XYZ
    dof rx ry rz
    limits (-20.0 45.0)
           (-30.0 30.0)
           (-30.0 30.0)
  end
  begin
     id 12 
     name upperback
     direction -0.00887249 0.992297 0.123566   
     length 1.71504   
     axis 0 0 0   XYZ
    dof rx ry rz
    limits (-20.0 45.0)
           (-30.0 30.0)
           (-30.0 30.0)
  end
  begin
     id 13 
     name thorax
     direction -0.0157026 0.998908 0.0440032   
     length 1.77022   
     axis 0 0 0   XYZ
    dof rx ry rz
    limits (-20.0 45.0)
           (-30.0 30.0)
           (-30.0 30.0)
  end
  begin
     id 14 
     name lowerneck
     direction -0.0238856 0.998137 0.0561411   
     length 1.89341   
     axis 0 0 0   XYZ
    dof rx ry rz
    limits (-20.0 45.0)
           (-30.0 30.0)
           (-30.0 30.0)
  end
  begin
     id 15 
     name upperneck
     direction 0.0276574 0.952253 -0.304056   
     length 1.86999   
     axis 0 0 0   XYZ
    dof rx ry rz
    limits (-20.0 45.0)
           (-30.0 30.0)
           (-30.0 30.0)
  end
  begin
     id 16
     name head
     direction 0.00800083 0.994258 -0.106712  
     length 1.91492  
     axis 0 0 0   XYZ
    dof rx ry rz
    limits (-20.0 45.0)
           (-30.0 30.0)
           (-30.0 30.0)
  end
  begin
     id 17 
     name lclavicle
     direction 0.97203 0.225407 0.06595  
     length 3.34889  
     axis 0 0 0   XYZ
    dof ry rz
    limits (-20.0 10.0)
           (0.0 20.0)
  end
  begin
     id 18 
     name lhumerus
     direction 1 -4.48973e-011 2.20267e-027   
     length 4.85645   
     axis 180 -30 -90   XYZ
    dof rx ry rz
    limits (-60.0 90.0)
           (-90.0 90.0)
           (-90.0 90.0)
  end
  begin
     id 19
     name lradius
     direction 1 -4.4897e-011 4.60472e-027   
     length 2.79874   
     axis 180 -30 -90   XYZ
    dof rx
    limits (-10.0 170.0)
  end
  begin
     id 20
     name lwrist
     direction 1 -4.48952e-011 1.14928e-026   
     length 1.39937   
     axis -6.29373e-015 90 90   XYZ
    dof ry
    limits (-180.0 0.0)
 end
  begin
     id 21 
     name lhand
     direction 1 -4.48967e-011 2.29886e-026   
     length 0.573398   
     axis -1.46689e-014 90 90   XYZ
    dof rx rz
    limits (-90.0 90.0)
           (-45.0 45.0)
  end
  begin
     id 22 
     name lfingers
     direction 1 -4.48955e-011 4.59726e-026   
     length 0.462289   
     axis -2.93383e-014 90 90   XYZ
    dof rx
    limits (0.0 90.0)
  end
  begin
     id 23
     name lthumb
     direction 0.707107 -6.34866e-011 0.707107   
     length 0.663757   
     axis -90 45 5.69224e-014   XYZ
    dof rx rz
    limits (-45.0 45.0)
           (-45.0 45.0)
  end
  begin
     id 24 
     name rclavicle
     direction -0.981571 0.157346 0.108443   
     length 3.35257  
     axis 0 0 0   XYZ 
    dof ry rz
    limits (-10.0 20.0)
           (-20.0 0.0)
  end
  begin
     id 25 
     name rhumerus
     direction -1 -4.48967e-011 8.58308e-029  
     length 4.67018   
     axis 180 30 90   XYZ
    dof rx ry rz
    limits (-90.0 60.0)
           (-90.0 90.0)
           (-90.0 90.0)
  end
  begin
     id 26 
     name rradius
     direction -1 -4.48958e-011 4.52548e-027   
     length 2.65534   
     axis 180 30 90   XYZ
    dof rx
    limits (-10.0 170.0)
  end
  begin
     id 27 
     name rwrist
     direction -1 -4.48977e-011 1.14952e-026   
     length 1.32767   
     axis -6.29373e-015 -90 -90   XYZ
    dof ry
    limits (-180.0 0.0)
  end
  begin
     id 28
     name rhand
     direction -1 -4.48924e-011 2.29804e-026   
     length 0.594069   
     axis -1.46689e-014 -90 -90   XYZ
    dof rx rz
    limits (-90.0 90.0)
           (-45.0 45.0)
  end
  begin
     id 29
     name rfingers
     direction -1 -4.48998e-011 4.59888e-026   
     length 0.478954   
     axis -2.93383e-014 -90 -90   XYZ
    dof rx
    limits (0.0 90.0)
  end
  begin
     id 30
     name rthumb
     direction -0.707107 -6.34933e-011 0.707107   
     length 0.687685   
     axis -90 -45 -5.69224e-014   XYZ
    dof rx rz
    limits (-45.0 45.0)
           (-45.0 45.0)
  end
:hierarchy
  begin
    root lhipjoint rhipjoint lowerback
    lhipjoint lfemur
    lfemur ltibia
    ltibia lfoot
    lfoot ltoes
    rhipjoint rfemur
    rfemur rtibia
    rtibia rfoot
    rfoot rtoes
    lowerback upperback
    upperback thorax
    thorax lowerneck lclavicle rclavicle
    lowerneck upperneck
    upperneck head
    lclavicle lhumerus
    lhumerus lradius
    lradius lwrist
    lwrist lhand lthumb
    lhand lfingers
    rclavicle rhumerus
    rhumerus rradius
    rradius rwrist
    rwrist rhand rthumb
    rhand rfingers
  end

#!OML:ASF E:\pregnant2\Project 1\Capture day 1\Session 1\pregnant2.ASF
:FULLY-SPECIFIED
:DEGREES
168
root 6.02564 13.0059 2.57381 57.0991 -3.63189 0.675476
lowerback 2.02783 0.219464 3.27991
upperback -6.53746 0.726757 3.34666
thorax -8.00167 0.269753 1.62125
lowerneck -17.8273 1.3559 0.602437
upperneck 24.7045 3.39157 -6.11208
head 11.0811 0.826389 -1.82671
rclavicle -1.59028e-015 2.70347e-014
rhumerus -45.9833 43.5293 -89.6865
rradius 28.022
rwrist 36.7494
rhand -19.3563 -1.29545
rfingers 7.12502
rthumb 6.96118 -31.161
lclavicle -1.59028e-015 2.70347e-014
lhumerus -48.0723 -44.0844 92.3979
lradius 90.1559
lwrist 17.7208
lhand -30.306 47.1309
lfingers 7.12502
lthumb -3.61299 77.08
rfemur -118.023 -11.8819 22.0154
rtibia 86.7914
rfoot -18.269 -5.24793
rtoes -10.8434
lfemur -117.819 4.28772 -26.4276
ltibia 87.4045
lfoot -24.9946 13.4601
ltoes -2.36067
169
root 6.02153 13.0621 2.60245 57.2571 -3.4464 0.588241
lowerback 1.83488 0.248259 3.2781
upperback -6.56452 0.755918 3.34483
thorax -7.91798 0.284939 1.61786
lowerneck -17.9546 1.27717 0.565692
upperneck 24.6446 3.26747 -6.02533
head 11.0759 0.776992 -1.806
rclavicle -2.94201e-014 -7.95139e-015
rhumerus -46.1941 43.3895 -89.576
rradius 28.2144
rwrist 36.0057
rhand -19.3465 -1.38397
rfingers 7.12502
rthumb 6.97066 -31.2492
lclavicle -2.94201e-014 -7.95139e-015
lhumerus -47.6123 -44.1246 92.4087
lradius 89.6521
lwrist 18.2374
lhand -30.3082 47.1469
lfingers 7.12502
lthumb -3.61505 77.096
rfemur -117.652 -11.8393 22.211
rtibia 86.2593
rfoot -18.2519 -5.26514
rtoes -10.7241
lfemur -117.516 4.29992 -26.2069
ltibia 86.8679
lfoot -24.9436 13.3614
ltoes -2.32729
170
root 6.01649 13.1172 2.62886 57.4059 -3.31978 0.530025
lowerback 1.71516 0.242758 3.17517
upperback -6.61473 0.739215 3.36202
thorax -7.90326 0.283836 1.69561
lowerneck -18.0374 1.23889 0.499712
upperneck 24.5349 3.22327 -6.00345
head 11.048 0.754532 -1.79152
rclavicle 9.54166e-015 -1.27222e-014
rhumerus -46.3827 43.2696 -89.4229
rradius 28.3987
rwrist 35.3635
rhand -19.3544 -1.54076
rfingers 7.12502
rthumb 6.96309 -31.4062
lclavicle 9.54166e-015 -1.27222e-014
lhumerus -47.2885 -44.0559 92.4796
lradius 89.2017
lwrist 18.9574
lhand -30.5973 46.9454
lfingers 7.12502
lthumb -3.89425 76.8895
rfemur -117.291 -11.7866 22.3316
rtibia 85.7197
rfoot -18.2075 -5.26333
rtoes -10.4702
lfemur -117.198 4.31635 -26.0564
ltibia 86.3131
lfoot -24.8706 13.303
ltoes -2.37617
171
root 6.01106 13.1716 2.65544 57.5899 -3.21772 0.478221
lowerback 1.58384 0.252815 3.05973
upperback -6.69105 0.741979 3.35192
thorax -7.90981 0.292065 1.75031
lowerneck -18.1876 1.14974 0.338936
upperneck 24.506 3.10331 -5.83944
head 11.0561 0.703817 -1.72162
rclavicle -3.18055e-015 -2.38542e-015
rhumerus -46.5642 43.0378 -89.2876
rradius 28.5533
rwrist 34.7062
rhand -19.4089 -1.72027
rfingers 7.12502
rthumb 6.91044 -31.5875
lclavicle -3.18055e-015 -2.38542e-015
lhumerus -46.9966 -44.0623 92.52
lradius 88.8355
lwrist 19.845
lhand -30.6258 47.0278
lfingers 7.12502
lthumb -3.92178 76.9715
rfemur -116.973 -11.7151 22.4393
rtibia 85.1758
rfoot -18.1345 -5.32185
rtoes -10.4885
lfemur -116.897 4.33818 -25.9475
ltibia 85.7499
lfoot -24.8126 13.2444
ltoes -2.30192
172
root 6.0068 13.2282 2.68123 57.7598 -3.11322 0.454399
lowerback 1.42957 0.236975 2.9477
upperback -6.75482 0.708505 3.34913
thorax -7.88902 0.282517 1.81361
lowerneck -18.2736 1.09971 0.250199
upperneck 24.4305 3.04371 -5.78761
head 11.0403 0.675261 -1.69531
rclavicle 1.51076e-014 -4.45278e-014
rhumerus -46.7479 42.8923 -89.1584
rradius 28.7263
rwrist 33.9978
rhand -19.2673 -1.88541
rfingers 7.12502
rthumb 7.04713 -31.7481
lclavicle 1.51076e-014 -4.45278e-014
lhumerus -46.7521 -43.9826 92.5797
lradius 88.5055
lwrist 20.7135
lhand -30.6358 47.0254
lfingers 7.12502
lthumb -3.93142 76.9689
rfemur -116.643 -11.6787 22.5204
rtibia 84.6196
rfoot -18.0269 -5.36959
rtoes -10.4057
lfemur -116.605 4.32668 -25.838
ltibia 85.1721
lfoot -24.6936 13.1818
ltoes -2.42884
173
root 6.00208 13.2832 2.70713 57.9742 -3.02014 0.425755
lowerback 1.2229 0.239887 2.8305
upperback -6.83509 0.697005 3.32261
thorax -7.85524 0.28345 1.85303
lowerneck -18.3799 1.0653 0.232789
upperneck 24.3587 2.99207 -5.76086
head 11.0315 0.653515 -1.68917
rclavicle -1.03368e-014 -1.03368e-014
rhumerus -46.9642 42.6543 -89.0422
rradius 28.9443
rwrist 33.272
rhand -19.3795 -2.1356
rfingers 7.12502
rthumb 6.93879 -32.0019
lclavicle -1.03368e-014 -1.03368e-014
lhumerus -46.5347 -43.9904 92.6638
lradius 88.1598
lwrist 21.606
lhand -30.7377 46.9325
lfingers 7.12502
lthumb -4.02984 76.8741
rfemur -116.346 -11.6254 22.5838
rtibia 84.0532
rfoot -17.9431 -5.41175
rtoes -10.3765
lfemur -116.359 4.33173 -25.7468
ltibia 84.5821
lfoot -24.5504 13.0917
ltoes -2.46425
174
root 5.99722 13.3377 2.73296 58.1653 -2.90555 0.402767
lowerback 1.04448 0.232206 2.75916
upperback -6.92167 0.675155 3.28803
thorax -7.84431 0.275845 1.85928
lowerneck -18.4041 1.01265 0.176201
upperneck 24.2484 2.91447 -5.70284
head 10.9903 0.622436 -1.66821
rclavicle -3.18055e-015 -8.74653e-015
rhumerus -47.1769 42.3981 -88.933
rradius 29.1751
rwrist 32.5795
rhand -19.474 -2.38617
rfingers 7.12502
rthumb 6.84756 -32.2554
lclavicle -3.18055e-015 -8.74653e-015
lhumerus -46.3598 -43.971 92.7788
lradius 87.7594
lwrist 22.3532
lhand -30.785 46.7708
lfingers 7.12502
lthumb -4.07554 76.7116
rfemur -116.042 -11.5871 22.6522
rtibia 83.4939
rfoot -17.8427 -5.45928
rtoes -10.4064
lfemur -116.071 4.31948 -25.6534
ltibia 83.9862
lfoot -24.4502 13.0456
ltoes -2.44469
175
root 5.99275 13.3947 2.75852 58.3611 -2.80663 0.395148
lowerback 0.877209 0.203714 2.65384
upperback -7.01281 0.624457 3.25756
thorax -7.84477 0.25614 1.89115
lowerneck -18.4203 0.971522 0.0944135
upperneck 24.1203 2.85068 -5.61248
head 10.9406 0.599645 -1.62896
rclavicle -1.35174e-014 6.99722e-014
rhumerus -47.3221 41.9454 -88.7555
rradius 29.3841
rwrist 32.1054
rhand -19.441 -2.54817
rfingers 7.12502
rthumb 6.87944 -32.4164
lclavicle -1.35174e-014 6.99722e-014
lhumerus -46.1716 -43.9098 92.8389
lradius 87.3347
lwrist 23.0053
lhand -30.7268 46.5741
lfingers 7.12502
lthumb -4.01933 76.516
rfemur -115.728 -11.5566 22.7093
rtibia 82.904
rfoot -17.714 -5.5315
rtoes -10.4619
lfemur -115.774 4.30021 -25.5808
ltibia 83.3677
lfoot -24.3606 12.946
ltoes -2.29277
176
root 5.98802 13.4531 2.7843 58.5502 -2.6749 0.373611
lowerback 0.702655 0.197562 2.61324
upperback -7.10924 0.605906 3.20103
thorax -7.84634 0.247338 1.85682
lowerneck -18.4934 0.923115 0.0694604
upperneck 24.0747 2.77385 -5.55282
head 10.9336 0.569905 -1.61375
rclavicle -5.56597e-015 2.54444e-014
rhumerus -47.6204 41.7167 -88.7313
rradius 29.6858
rwrist 31.4014
rhand -19.4624 -2.7276
rfingers 7.12502
rthumb 6.85882 -32.5965
lclavicle -5.56597e-015 2.54444e-014
lhumerus -46.0584 -43.9234 92.9735
lradius 86.8808
lwrist 23.4681
lhand -30.7652 46.276
lfingers 7.12502
lthumb -4.05642 76.2171
rfemur -115.388 -11.5171 22.7836
rtibia 82.3139
rfoot -17.6221 -5.62215
rtoes -10.6123
lfemur -115.478 4.28597 -25.4789
ltibia 82.7348
lfoot -24.2686 12.8522
ltoes -2.21768
